Coordinates
version=1
nRows=60
nColumns=12
inDegrees=yes

Units are S.I. units (second, meters, Newtons, ...)
Angles are in degrees

endheader
time	SC_y	SC_z	SC_x	AC_y	AC_z	AC_x	GH_y	GH_z	GH_yy	EL_x	PS_y
       0.0              -52.26          2.299          63.71          39.72            8.3          4.873         -31.99          46.23         -173.2          120.8          60.32
   0.01473              -52.25            2.3          63.71          39.72          8.297          4.875          -32.0          46.22         -173.2          120.8          60.33
   0.02945              -52.25            2.3          63.71          39.72          8.294          4.877         -32.01          46.21         -173.2          120.8          60.35
   0.04418              -52.25          2.301           63.7          39.72          8.291          4.879         -32.02           46.2         -173.2          120.8          60.36
    0.0589              -52.24          2.302           63.7          39.72          8.288          4.882         -32.03          46.19         -173.2          120.8          60.37
   0.07363              -52.24          2.302           63.7          39.72          8.284          4.885         -32.05          46.18         -173.2          120.8          60.38
   0.08835              -52.23          2.303           63.7          39.73           8.28          4.888         -32.06          46.16         -173.2          120.8           60.4
    0.1031              -52.23          2.304           63.7          39.73          8.276          4.891         -32.07          46.15         -173.1          120.8          60.41
    0.1178              -52.22          2.305          63.69          39.73          8.271          4.894         -32.09          46.14         -173.1          120.8          60.43
    0.1325              -52.22          2.306          63.69          39.73          8.266          4.897          -32.1          46.12         -173.1          120.9          60.44
    0.1473              -52.21          2.307          63.69          39.73          8.261          4.901         -32.12          46.11         -173.1          120.9          60.46
     0.162               -52.2          2.308          63.69          39.73          8.255          4.905         -32.14          46.09         -173.1          120.9          60.48
    0.1767               -52.2          2.309          63.68          39.73          8.249           4.91         -32.16          46.07         -173.1          120.9           60.5
    0.1914              -52.19           2.31          63.68          39.73          8.243          4.915         -32.18          46.05         -173.1          120.9          60.53
    0.2062              -52.18          2.312          63.67          39.73          8.236           4.92          -32.2          46.03         -173.1          120.9          60.55
    0.2209              -52.17          2.313          63.67          39.73          8.228          4.925         -32.23          46.01         -173.1          120.9          60.58
    0.2356              -52.16          2.315          63.67          39.73           8.22          4.932         -32.26          45.98         -173.1          120.9          60.61
    0.2503              -52.15          2.317          63.66          39.73          8.211          4.938         -32.29          45.95         -173.1          120.9          60.64
    0.2651              -52.14          2.319          63.66          39.73          8.201          4.946         -32.32          45.92         -173.0          120.9          60.68
    0.2798              -52.13          2.321          63.65          39.73           8.19          4.954         -32.35          45.89         -173.0          120.9          60.71
    0.2945              -52.12          2.323          63.64          39.73          8.178          4.962         -32.39          45.85         -173.0          120.9          60.76
    0.3092               -52.1          2.326          63.64          39.73          8.165          4.972         -32.44          45.81         -173.0          120.9           60.8
     0.324              -52.08          2.329          63.63          39.73           8.15          4.983         -32.48          45.77         -173.0          120.9          60.85
    0.3387              -52.06          2.332          63.62          39.73          8.134          4.994         -32.53          45.72         -173.0          121.0          60.91
    0.3534              -52.04          2.336          63.61          39.74          8.116          5.007         -32.59          45.67         -172.9          121.0          60.97
    0.3681              -52.02           2.34           63.6          39.74          8.096          5.022         -32.66           45.6         -172.9          121.0          61.05
    0.3829              -51.99          2.344          63.59          39.74          8.074          5.038         -32.73          45.54         -172.9          121.0          61.12
    0.3976              -51.97          2.349          63.57          39.74          8.049          5.057         -32.81          45.46         -172.9          121.0          61.21
    0.4123              -51.93          2.355          63.56          39.74           8.02          5.078         -32.91          45.37         -172.8          121.1          61.31
     0.427               -51.9          2.361          63.54          39.74          7.988          5.101         -33.01          45.27         -172.8          121.1          61.43
    0.4418              -51.85          2.369          63.52          39.75          7.951          5.128         -33.13          45.16         -172.7          121.1          61.56
    0.4565               -51.8          2.377           63.5          39.75          7.909          5.159         -33.27          45.03         -172.7          121.1          61.71
    0.4712              -51.75          2.387          63.47          39.75           7.86          5.195         -33.43          44.88         -172.6          121.2          61.88
    0.4859              -51.68          2.398          63.44          39.75          7.804          5.236         -33.61          44.71         -172.5          121.2          62.08
    0.5007              -51.61          2.412          63.41          39.76          7.737          5.285         -33.83          44.51         -172.4          121.3          62.31
    0.5154              -51.51          2.427          63.36          39.76          7.659          5.342         -34.08          44.27         -172.3          121.3          62.59
    0.5301              -51.41          2.446          63.31          39.77          7.566           5.41         -34.39          43.99         -172.2          121.4          62.92
    0.5448              -51.28          2.468          63.25          39.78          7.455          5.492         -34.75          43.65         -172.1          121.5          63.31
    0.5596              -51.12          2.495          63.18          39.78           7.32          5.591         -35.19          43.24         -171.9          121.6          63.79
    0.5743              -50.93          2.528          63.09          39.79          7.156          5.711         -35.73          42.73         -171.7          121.8          64.37
     0.589               -50.7          2.569          62.98          39.81          6.953           5.86         -36.39          42.11         -171.4          121.9          65.09
    0.6037               -50.4          2.619          62.85          39.82            6.7          6.046         -37.21          41.34         -171.1          122.1          65.98
    0.6185              -50.03          2.683          62.67          39.84          6.381          6.279         -38.25          40.37         -170.7          122.4          67.11
    0.6332              -49.56          2.765          62.46          39.87          5.975          6.577         -39.58          39.13         -170.1          122.7          68.54
    0.6479              -48.96          2.868          62.18           39.9          5.456          6.957         -41.27          37.55         -169.5          123.1          70.37
    0.6626              -48.19          3.002          61.82          39.94           4.79          7.445         -43.44          35.51         -168.6          123.7          72.73
    0.6774              -47.21          3.172          61.36          39.99          3.939          8.069         -46.22          32.92         -167.5          124.4          75.73
    0.6921              -45.97          3.386          60.78          40.06          2.869          8.853         -49.71          29.65         -166.1          125.3          79.51
    0.7068              -44.46          3.647          60.08          40.14          1.565          9.808         -53.96          25.67         -164.4          126.3          84.12
    0.7215              -42.71           3.95          59.26          40.23        0.05417          10.92         -58.89          21.06         -162.4          127.6          89.46
    0.7363              -40.81          4.278          58.38          40.33         -1.582          12.12         -64.23          16.07         -160.3          128.9          95.24
     0.751              -38.92          4.605           57.5          40.43         -3.218          13.31         -69.56          11.07         -158.1          130.2          101.0
    0.7657              -37.17          4.908          56.68          40.53          -4.73          14.42         -74.49          6.463         -156.2          131.5          106.4
    0.7804              -35.66          5.169          55.98          40.61         -6.033          15.38         -78.74          2.484         -154.5          132.5          111.0
    0.7952              -34.42          5.383           55.4          40.67         -7.103          16.16         -82.23        -0.7811         -153.1          133.4          114.7
    0.8099              -33.43          5.553          54.94          40.73         -7.954          16.78         -85.01         -3.378         -152.0          134.1          117.8
    0.8246              -32.66          5.687          54.59          40.77          -8.62          17.27         -87.18          -5.41         -151.1          134.6          120.1
    0.8393              -32.06          5.791          54.31           40.8         -9.139          17.65         -88.87         -6.994         -150.4          135.1          121.9
    0.8541              -31.59          5.872          54.09          40.83         -9.545          17.95          -90.2         -8.232         -149.9          135.4          123.4
    0.8688              -31.22          5.936          53.92          40.84         -9.864          18.18         -91.24         -9.206         -149.5          135.7          124.5
